HIERARCHY
ROOT pelvis
{
  OFFSET 0 100 0
  CHANNELS 6 Xposition Yposition Zposition Zrotation Xrotation Yrotation
  JOINT pelvis_right_femur
  {
    OFFSET -10.78128 -3.44521 -0.5502486
    CHANNELS 3 Zrotation Xrotation Yrotation
    JOINT right_femur_tibia
    {
      OFFSET -0.8047443 -44.0398 -0.1307829
      CHANNELS 3 Zrotation Xrotation Yrotation
      JOINT right_tibia_foot
      {
        OFFSET 3.006224 -47.83518 -5
        CHANNELS 3 Zrotation Xrotation Yrotation
        End Site
        {
          OFFSET 0 -5 15
        }
      }
    }
  }
  JOINT pelvis_left_femur
  {
    OFFSET 10.78128 -3.44521 -0.5502486
    CHANNELS 3 Zrotation Xrotation Yrotation
    JOINT left_femur_tibia
    {
      OFFSET 0.8047443 -44.0398 -0.1307829
      CHANNELS 3 Zrotation Xrotation Yrotation
      JOINT left_tibia_foot
      {
        OFFSET -4.370144 -48.10324 -4.275266
        CHANNELS 3 Zrotation Xrotation Yrotation
        End Site
        {
          OFFSET 0 -5 15
        }
      }
    }
  }
  JOINT pelvis_spine1
  {
    OFFSET 0 6.468898 -3.129235
    CHANNELS 3 Zrotation Xrotation Yrotation
    JOINT spine1
    {
      OFFSET 0 23.15396 4.99043
      CHANNELS 3 Zrotation Xrotation Yrotation
      JOINT spine2
      {
        OFFSET 0 20.79997 -5.064912
        CHANNELS 3 Zrotation Xrotation Yrotation
        JOINT neck
        {
          OFFSET 0 14.38658 9.616178
          CHANNELS 3 Zrotation Xrotation Yrotation
          End Site
          {
            OFFSET 0 20 0
          }
        }
      }
      JOINT right_manubrium
      {
        OFFSET -5.722621 16.35077 3.967754
        CHANNELS 3 Zrotation Xrotation Yrotation
        JOINT right_clavicle
        {
          OFFSET -13.16364 1.694482 -4.693211
          CHANNELS 3 Zrotation Xrotation Yrotation
          JOINT right_humerus
          {
            OFFSET -28.5034 -0.3100689 -2.792744
            CHANNELS 3 Zrotation Xrotation Yrotation
            JOINT right_radius
            {
              OFFSET -25.15693 0.02248979 -1.271978
              CHANNELS 3 Zrotation Xrotation Yrotation
              End Site
              {
                OFFSET -15 0 0
              }
            }
          }
        }
      }
      JOINT left_manubrium
      {
        OFFSET 5.722621 16.35077 3.967754
        CHANNELS 3 Zrotation Xrotation Yrotation
        JOINT left_clavicle
        {
          OFFSET 13.16364 1.694482 -4.693211
          CHANNELS 3 Zrotation Xrotation Yrotation
          JOINT left_humerus
          {
            OFFSET 29.39168 -1.063119 -2.237045
            CHANNELS 3 Zrotation Xrotation Yrotation
            JOINT left_radius
            {
              OFFSET 24.59957 -0.9528479 0.9047498
              CHANNELS 3 Zrotation Xrotation Yrotation
              End Site
              {
                OFFSET 15 -0 -0
              }
            }
          }
        }
      }
    }
  }
}
MOTION
Frames: 13
Frame Time: 0.0416666666667
26.06906 98.57024 3182.143 -0.2555493 -2.996036 3.195262 2.10442 -24.40145 0.9963579 -0 26.96513 -0 -4.508109 3.497684 -4.425047 -4.33169 11.12134 -9.040268 -0 13.64376 -0 -1.97414 -17.72729 12.55426 -2.184656 0.7145334 2.059138 2.172757 10.38893 -8.204089 0.8575695 21.17979 7.139514 3.184028 -21.60819 7.549787 3.505594 -16.4028 11.47578 88.80916 28.93809 -19.39726 -0 0 9.064322 -19.02755 11.62348 11.48808 5.602976 -22.14944 -4.861149 -84.47501 21.29758 11.22658 0 0 -22.34941 5.685858 9.215395 7.095287
26.38551 97.65459 3188.144 -0.1925411 -1.657288 3.73518 2.802374 -29.03895 0.8269429 -0 14.46855 -0 -3.627301 -0.2056265 -4.853711 -4.362964 13.91151 -8.25077 -0 16.8187 -0 -2.568322 -18.74162 11.99105 -2.018872 0.374222 2.311773 2.591952 9.692053 -8.800546 0.9255413 20.97067 7.073588 3.099846 -21.27592 7.580715 3.245448 -15.15999 11.14025 89.56149 29.33406 -22.18362 -0 0 7.251415 -18.00727 11.67231 9.993592 6.680298 -23.42981 -4.274277 -82.3727 20.52592 6.971382 0 0 -27.82594 6.939789 8.700904 5.299489
26.51571 96.39818 3194.514 0.1002034 -2.581232 3.973363 3.146315 -28.90539 -0.5442138 -0 7.259515 -0 -4.644921 -0.5622462 -4.86095 -4.596585 16.20704 -7.773006 -0 21.51486 -0 -2.406454 -18.65287 12.63392 -1.547192 -0.441613 2.401428 2.362876 9.757099 -8.639878 1.370019 21.69845 6.517386 2.708849 -20.65273 7.690578 1.068621 -14.97274 10.74571 91.88148 25.63323 -23.98038 -0 0 5.355311 -18.41869 10.89515 8.876847 7.280213 -24.63282 -4.608794 -81.86307 19.49257 4.952127 0 0 -30.18572 8.572209 10.21869 2.981647
26.53022 95.45933 3201.106 0.2812673 -4.082439 3.994134 3.739937 -26.39556 -0.8678662 -0 6.191359 -0 -5.678955 -0.01679626 -5.056677 -4.577763 16.44951 -7.490047 -0 28.83226 -0 -2.810478 -17.10098 13.05695 -1.061431 -0.8479599 2.522549 2.067782 10.17715 -8.296802 1.752155 22.36279 5.954071 2.410971 -20.08157 7.636915 -0.2916785 -15.02474 10.65184 93.39371 22.7775 -24.52707 -0 0 4.384337 -18.80378 10.50579 8.237697 7.078214 -24.95659 -5.105598 -82.2613 19.2695 4.970327 0 0 -29.87636 8.911306 11.35744 2.411814
26.42878 95.23318 3207.79 0.3029509 -5.420002 3.784022 4.794527 -22.82344 0.2022792 -0 7.616753 -0 -6.032104 -0.327164 -5.634434 -4.216153 14.69538 -7.105939 -0 40.03901 -0 -4.235299 -14.21955 12.97861 -0.5833786 -0.7693233 2.866106 1.907571 10.6185 -7.980564 2.008019 22.73034 5.46109 2.266873 -19.48941 7.375607 -0.3776242 -14.80929 10.82376 93.77578 21.87254 -24.57992 -0 0 4.129893 -18.60424 10.67391 7.687194 6.361319 -24.51674 -5.357862 -82.94065 19.83088 5.849779 0 0 -28.47392 7.864331 11.45709 3.629073
26.22392 95.80436 3214.489 0.1977798 -6.620825 3.306525 6.013958 -18.05652 1.719002 -0 9.530198 -0 -6.166574 -1.163201 -6.130096 -3.562472 11.23504 -6.563939 -0 52.59117 -0 -5.871413 -10.59746 12.9327 -0.0487746 -0.5681513 3.466027 1.762953 11.17423 -7.603577 2.196147 22.8935 4.973902 2.185927 -18.98623 6.995394 -0.03079567 -14.80839 11.1626 93.55286 21.6712 -24.17672 -0 0 4.598945 -18.31612 11.1025 7.317459 5.430518 -23.76894 -5.489988 -84.03446 20.50536 7.69944 0 0 -26.46542 6.365321 11.14922 5.446271
25.99175 97.03082 3221.126 -0.03645818 -7.347105 2.570709 7.045818 -12.21973 3.218577 -0 11.03588 -0 -6.068698 -2.682904 -6.188597 -2.567753 5.769325 -5.82893 -0 62.46754 -0 -7.106103 -6.949473 13.12309 0.4371372 -0.3520233 4.349746 1.608392 11.78741 -7.159557 2.248112 22.73981 4.567501 2.152623 -18.73845 6.543752 0.570822 -15.41751 11.62826 92.51665 22.15077 -22.93082 -0 0 6.295923 -18.2302 11.74912 7.463973 4.49772 -22.83461 -5.433898 -85.59985 20.91312 10.76748 0 0 -24.00493 4.844783 10.52685 7.341574
25.8668 98.47634 3227.634 -0.3390755 -7.260102 1.656303 7.552068 -5.573354 4.346393 -0 11.25026 -0 -5.653634 -5.278081 -5.55391 -1.174645 -1.848378 -4.847659 -0 65.2573 -0 -7.377323 -4.075144 13.63375 0.7126924 -0.1920277 5.494694 1.436825 12.30853 -6.663779 2.096297 22.19822 4.306417 2.122763 -18.83267 6.075387 1.307888 -16.92997 12.14636 90.37578 23.4007 -20.38478 -0 0 9.669874 -18.57669 12.57279 8.452555 3.785046 -21.79154 -5.082995 -87.53785 20.75174 15.02719 0 0 -21.24962 3.661946 9.676361 8.858401
25.9674 99.4949 3233.993 -0.5573989 -6.517263 0.6935805 7.331276 1.15355 4.837896 -0 9.732815 -0 -4.891164 -8.998148 -4.371704 0.5355795 -10.45364 -3.639247 -0 58.61875 -0 -6.563557 -2.704619 14.42922 0.6803854 -0.1337378 6.681597 1.21535 12.54 -6.138664 1.808072 21.44202 4.13299 1.984874 -19.05283 5.675041 1.83827 -19.23361 12.53175 87.37854 24.7982 -16.55772 -0 0 14.45907 -19.48933 13.38937 10.25839 3.465915 -20.74521 -4.501569 -89.45219 20.07916 19.66504 0 0 -18.51781 2.887728 8.8631 9.818357
26.31645 99.63274 3240.257 -0.6189507 -5.848217 -0.2374844 6.648508 6.999978 4.793522 -0 7.341234 -0 -3.83417 -12.77804 -3.15778 2.320812 -17.94196 -2.292162 -0 46.2801 -0 -5.408042 -2.753131 15.26968 0.5065775 -0.1467995 7.641545 0.8867173 12.52138 -5.596488 1.577622 20.7578 3.91852 1.702783 -19.03576 5.384698 1.800605 -21.74333 12.65741 84.57447 25.12478 -12.47613 -0 0 19.54692 -20.92633 13.98142 12.35505 3.465444 -19.81375 -4.029352 -90.99326 19.32676 23.64598 0 0 -16.21426 2.122807 8.285522 10.63493
26.87214 98.88318 3246.551 -0.6056591 -5.642693 -1.126577 5.969065 11.40332 4.554255 -0 5.399981 -0 -2.56178 -15.27657 -2.190342 3.923384 -23.27681 -0.9370223 -0 34.29136 -0 -4.73941 -3.531742 15.87378 0.4226934 -0.1519289 8.328631 0.4524963 12.46288 -5.044762 1.499899 20.22271 3.68227 1.417919 -18.75329 5.188124 1.27684 -23.90047 12.60453 82.75806 24.05705 -9.258701 -0 0 23.93865 -22.66323 14.25934 14.22221 3.584616 -19.04893 -3.890346 -92.1781 18.78876 26.64936 0 0 -14.5725 1.049249 7.824217 11.75615
27.57591 97.47258 3252.989 -0.5745005 -5.771998 -1.977109 5.442686 14.48459 4.366269 -0 4.488922 -0 -1.182528 -16.39118 -1.487472 5.149525 -26.72763 0.1969984 -0 25.22025 -0 -4.734092 -4.54938 16.23509 0.4409057 -0.1053034 8.816775 -0.01985588 12.39177 -4.494868 1.545073 19.82852 3.502351 1.236717 -18.35103 5.074042 0.5991243 -25.46792 12.46913 81.81688 22.2804 -7.091996 -0 0 27.33534 -24.33684 14.23537 15.63532 3.720384 -18.37284 -3.973938 -93.15548 18.60188 28.80327 0 0 -13.47158 -0.3124065 7.326971 13.23919
28.37257 95.62203 3259.625 -0.5296732 -6.088516 -2.790166 5.011237 16.65222 4.310727 -0 4.591029 -0 0.2012673 -16.66987 -1.032225 5.940702 -28.8519 0.9620345 -0 18.85381 -0 -5.189832 -5.6094 16.47624 0.4920808 -0.02021058 9.166246 -0.4825876 12.27196 -3.963742 1.668647 19.57063 3.382311 1.146406 -17.89359 5.030303 -0.0514755 -26.4977 12.28686 81.40232 20.34747 -5.68893 -0 0 29.8862 -25.74119 13.99896 16.59606 3.841182 -17.7138 -4.137258 -94.01697 18.7724 30.32656 0 0 -12.67749 -1.834166 6.777019 14.9517
